<svg xmlns="http://www.w3.org/2000/svg" viewBox="0 0 64 39" width="512" height="312" shape-rendering="crispEdges">
  <title>ShuYi Agent pixel icon</title>
  <desc>Standalone grid-aligned pixel SVG icon reconstructed from the source PNG.</desc>
  <metadata>Generated from the AI pixel-style PNG into grid-aligned SVG rectangles. All shapes are integer-aligned for crisp pixel rendering.</metadata>
      <g id="pixel-icon">
    <g fill="#050638">
      <rect x="17" y="0" width="6" height="1"/>
      <rect x="41" y="0" width="6" height="1"/>
      <rect x="16" y="1" width="10" height="1"/>
      <rect x="38" y="1" width="10" height="1"/>
      <rect x="15" y="2" width="12" height="1"/>
      <rect x="37" y="2" width="12" height="1"/>
      <rect x="10" y="3" width="7" height="1"/>
      <rect x="23" y="3" width="6" height="1"/>
      <rect x="35" y="3" width="6" height="1"/>
      <rect x="47" y="3" width="7" height="1"/>
      <rect x="10" y="4" width="6" height="1"/>
      <rect x="26" y="4" width="5" height="1"/>
      <rect x="33" y="4" width="5" height="1"/>
      <rect x="48" y="4" width="6" height="1"/>
      <rect x="10" y="5" width="5" height="1"/>
      <rect x="27" y="5" width="10" height="1"/>
      <rect x="49" y="5" width="5" height="1"/>
      <rect x="7" y="6" width="8" height="1"/>
      <rect x="29" y="6" width="6" height="1"/>
      <rect x="49" y="6" width="8" height="1"/>
      <rect x="7" y="7" width="4" height="1"/>
      <rect x="31" y="7" width="2" height="1"/>
      <rect x="53" y="7" width="4" height="1"/>
      <rect x="7" y="8" width="4" height="1"/>
      <rect x="53" y="8" width="4" height="1"/>
      <rect x="7" y="9" width="4" height="1"/>
      <rect x="53" y="9" width="4" height="1"/>
      <rect x="7" y="10" width="4" height="1"/>
      <rect x="53" y="10" width="4" height="1"/>
      <rect x="7" y="11" width="4" height="1"/>
      <rect x="53" y="11" width="4" height="1"/>
      <rect x="7" y="12" width="2" height="1"/>
      <rect x="55" y="12" width="2" height="1"/>
      <rect x="7" y="13" width="2" height="1"/>
      <rect x="23" y="13" width="4" height="1"/>
      <rect x="37" y="13" width="4" height="1"/>
      <rect x="55" y="13" width="2" height="1"/>
      <rect x="4" y="14" width="2" height="1"/>
      <rect x="7" y="14" width="2" height="1"/>
      <rect x="10" y="14" width="2" height="1"/>
      <rect x="22" y="14" width="6" height="1"/>
      <rect x="36" y="14" width="6" height="1"/>
      <rect x="52" y="14" width="2" height="1"/>
      <rect x="55" y="14" width="2" height="1"/>
      <rect x="58" y="14" width="2" height="1"/>
      <rect x="4" y="15" width="2" height="1"/>
      <rect x="7" y="15" width="2" height="1"/>
      <rect x="10" y="15" width="2" height="1"/>
      <rect x="21" y="15" width="8" height="1"/>
      <rect x="35" y="15" width="8" height="1"/>
      <rect x="52" y="15" width="2" height="1"/>
      <rect x="55" y="15" width="2" height="1"/>
      <rect x="58" y="15" width="2" height="1"/>
      <rect x="1" y="16" width="2" height="1"/>
      <rect x="4" y="16" width="2" height="1"/>
      <rect x="7" y="16" width="2" height="1"/>
      <rect x="10" y="16" width="2" height="1"/>
      <rect x="13" y="16" width="2" height="1"/>
      <rect x="21" y="16" width="2" height="1"/>
      <rect x="27" y="16" width="2" height="1"/>
      <rect x="35" y="16" width="2" height="1"/>
      <rect x="41" y="16" width="2" height="1"/>
      <rect x="49" y="16" width="2" height="1"/>
      <rect x="52" y="16" width="2" height="1"/>
      <rect x="55" y="16" width="2" height="1"/>
      <rect x="58" y="16" width="2" height="1"/>
      <rect x="61" y="16" width="2" height="1"/>
      <rect x="1" y="17" width="2" height="1"/>
      <rect x="4" y="17" width="2" height="1"/>
      <rect x="7" y="17" width="2" height="1"/>
      <rect x="10" y="17" width="2" height="1"/>
      <rect x="13" y="17" width="2" height="1"/>
      <rect x="21" y="17" width="2" height="1"/>
      <rect x="27" y="17" width="2" height="1"/>
      <rect x="35" y="17" width="2" height="1"/>
      <rect x="41" y="17" width="2" height="1"/>
      <rect x="49" y="17" width="2" height="1"/>
      <rect x="52" y="17" width="2" height="1"/>
      <rect x="55" y="17" width="2" height="1"/>
      <rect x="58" y="17" width="2" height="1"/>
      <rect x="61" y="17" width="2" height="1"/>
      <rect x="1" y="18" width="2" height="1"/>
      <rect x="4" y="18" width="2" height="1"/>
      <rect x="7" y="18" width="2" height="1"/>
      <rect x="10" y="18" width="2" height="1"/>
      <rect x="13" y="18" width="2" height="1"/>
      <rect x="22" y="18" width="2" height="1"/>
      <rect x="26" y="18" width="2" height="1"/>
      <rect x="36" y="18" width="2" height="1"/>
      <rect x="40" y="18" width="2" height="1"/>
      <rect x="49" y="18" width="2" height="1"/>
      <rect x="52" y="18" width="2" height="1"/>
      <rect x="55" y="18" width="2" height="1"/>
      <rect x="58" y="18" width="2" height="1"/>
      <rect x="61" y="18" width="2" height="1"/>
      <rect x="1" y="19" width="2" height="1"/>
      <rect x="4" y="19" width="2" height="1"/>
      <rect x="7" y="19" width="2" height="1"/>
      <rect x="10" y="19" width="2" height="1"/>
      <rect x="13" y="19" width="2" height="1"/>
      <rect x="23" y="19" width="4" height="1"/>
      <rect x="37" y="19" width="4" height="1"/>
      <rect x="49" y="19" width="2" height="1"/>
      <rect x="52" y="19" width="2" height="1"/>
      <rect x="55" y="19" width="2" height="1"/>
      <rect x="58" y="19" width="2" height="1"/>
      <rect x="61" y="19" width="2" height="1"/>
      <rect x="1" y="20" width="2" height="1"/>
      <rect x="4" y="20" width="2" height="1"/>
      <rect x="7" y="20" width="2" height="1"/>
      <rect x="10" y="20" width="2" height="1"/>
      <rect x="13" y="20" width="2" height="1"/>
      <rect x="21" y="20" width="7" height="1"/>
      <rect x="36" y="20" width="7" height="1"/>
      <rect x="49" y="20" width="2" height="1"/>
      <rect x="52" y="20" width="2" height="1"/>
      <rect x="55" y="20" width="2" height="1"/>
      <rect x="58" y="20" width="2" height="1"/>
      <rect x="61" y="20" width="2" height="1"/>
      <rect x="1" y="21" width="2" height="1"/>
      <rect x="4" y="21" width="2" height="1"/>
      <rect x="7" y="21" width="2" height="1"/>
      <rect x="10" y="21" width="2" height="1"/>
      <rect x="13" y="21" width="2" height="1"/>
      <rect x="20" y="21" width="10" height="1"/>
      <rect x="34" y="21" width="10" height="1"/>
      <rect x="49" y="21" width="2" height="1"/>
      <rect x="52" y="21" width="2" height="1"/>
      <rect x="55" y="21" width="2" height="1"/>
      <rect x="58" y="21" width="2" height="1"/>
      <rect x="61" y="21" width="2" height="1"/>
      <rect x="1" y="22" width="2" height="1"/>
      <rect x="4" y="22" width="2" height="1"/>
      <rect x="7" y="22" width="2" height="1"/>
      <rect x="10" y="22" width="2" height="1"/>
      <rect x="13" y="22" width="2" height="1"/>
      <rect x="20" y="22" width="10" height="1"/>
      <rect x="34" y="22" width="10" height="1"/>
      <rect x="49" y="22" width="2" height="1"/>
      <rect x="52" y="22" width="2" height="1"/>
      <rect x="55" y="22" width="2" height="1"/>
      <rect x="58" y="22" width="2" height="1"/>
      <rect x="61" y="22" width="2" height="1"/>
      <rect x="4" y="23" width="2" height="1"/>
      <rect x="7" y="23" width="2" height="1"/>
      <rect x="10" y="23" width="2" height="1"/>
      <rect x="20" y="23" width="10" height="1"/>
      <rect x="34" y="23" width="10" height="1"/>
      <rect x="52" y="23" width="2" height="1"/>
      <rect x="55" y="23" width="2" height="1"/>
      <rect x="58" y="23" width="2" height="1"/>
      <rect x="4" y="24" width="2" height="1"/>
      <rect x="7" y="24" width="2" height="1"/>
      <rect x="10" y="24" width="2" height="1"/>
      <rect x="52" y="24" width="2" height="1"/>
      <rect x="55" y="24" width="2" height="1"/>
      <rect x="58" y="24" width="2" height="1"/>
      <rect x="7" y="25" width="2" height="1"/>
      <rect x="55" y="25" width="2" height="1"/>
      <rect x="7" y="26" width="2" height="1"/>
      <rect x="55" y="26" width="2" height="1"/>
      <rect x="7" y="27" width="4" height="1"/>
      <rect x="53" y="27" width="4" height="1"/>
      <rect x="7" y="28" width="4" height="1"/>
      <rect x="53" y="28" width="4" height="1"/>
      <rect x="7" y="29" width="4" height="1"/>
      <rect x="53" y="29" width="4" height="1"/>
      <rect x="7" y="30" width="4" height="1"/>
      <rect x="53" y="30" width="4" height="1"/>
      <rect x="7" y="31" width="4" height="1"/>
      <rect x="53" y="31" width="4" height="1"/>
      <rect x="7" y="32" width="17" height="1"/>
      <rect x="40" y="32" width="17" height="1"/>
      <rect x="9" y="33" width="18" height="1"/>
      <rect x="37" y="33" width="18" height="1"/>
      <rect x="9" y="34" width="20" height="1"/>
      <rect x="35" y="34" width="20" height="1"/>
      <rect x="24" y="35" width="5" height="1"/>
      <rect x="35" y="35" width="5" height="1"/>
      <rect x="26" y="36" width="12" height="1"/>
      <rect x="28" y="37" width="8" height="1"/>
      <rect x="28" y="38" width="8" height="1"/>
    </g>
    <g fill="#1fe5c8">
      <rect x="17" y="3" width="6" height="1"/>
      <rect x="41" y="3" width="6" height="1"/>
      <rect x="16" y="4" width="10" height="1"/>
      <rect x="38" y="4" width="10" height="1"/>
      <rect x="15" y="5" width="12" height="1"/>
      <rect x="37" y="5" width="12" height="1"/>
      <rect x="15" y="6" width="2" height="1"/>
      <rect x="23" y="6" width="6" height="1"/>
      <rect x="35" y="6" width="6" height="1"/>
      <rect x="47" y="6" width="2" height="1"/>
      <rect x="11" y="7" width="5" height="1"/>
      <rect x="26" y="7" width="5" height="1"/>
      <rect x="33" y="7" width="5" height="1"/>
      <rect x="48" y="7" width="5" height="1"/>
      <rect x="11" y="8" width="4" height="1"/>
      <rect x="27" y="8" width="10" height="1"/>
      <rect x="49" y="8" width="4" height="1"/>
      <rect x="11" y="9" width="4" height="1"/>
      <rect x="19" y="9" width="4" height="1"/>
      <rect x="29" y="9" width="6" height="1"/>
      <rect x="41" y="9" width="4" height="1"/>
      <rect x="49" y="9" width="4" height="1"/>
      <rect x="11" y="10" width="4" height="1"/>
      <rect x="18" y="10" width="8" height="1"/>
      <rect x="31" y="10" width="2" height="1"/>
      <rect x="38" y="10" width="8" height="1"/>
      <rect x="49" y="10" width="4" height="1"/>
      <rect x="11" y="11" width="4" height="1"/>
      <rect x="18" y="11" width="9" height="1"/>
      <rect x="37" y="11" width="9" height="1"/>
      <rect x="49" y="11" width="4" height="1"/>
      <rect x="11" y="12" width="4" height="1"/>
      <rect x="18" y="12" width="11" height="1"/>
      <rect x="35" y="12" width="11" height="1"/>
      <rect x="49" y="12" width="4" height="1"/>
      <rect x="11" y="13" width="4" height="1"/>
      <rect x="18" y="13" width="5" height="1"/>
      <rect x="27" y="13" width="4" height="1"/>
      <rect x="33" y="13" width="4" height="1"/>
      <rect x="41" y="13" width="5" height="1"/>
      <rect x="49" y="13" width="4" height="1"/>
      <rect x="12" y="14" width="3" height="1"/>
      <rect x="18" y="14" width="4" height="1"/>
      <rect x="28" y="14" width="8" height="1"/>
      <rect x="42" y="14" width="4" height="1"/>
      <rect x="49" y="14" width="3" height="1"/>
      <rect x="12" y="15" width="3" height="1"/>
      <rect x="18" y="15" width="3" height="1"/>
      <rect x="29" y="15" width="6" height="1"/>
      <rect x="43" y="15" width="3" height="1"/>
      <rect x="49" y="15" width="3" height="1"/>
      <rect x="12" y="16" width="1" height="1"/>
      <rect x="18" y="16" width="3" height="1"/>
      <rect x="29" y="16" width="6" height="1"/>
      <rect x="43" y="16" width="3" height="1"/>
      <rect x="51" y="16" width="1" height="1"/>
      <rect x="12" y="17" width="1" height="1"/>
      <rect x="18" y="17" width="3" height="1"/>
      <rect x="29" y="17" width="6" height="1"/>
      <rect x="43" y="17" width="3" height="1"/>
      <rect x="51" y="17" width="1" height="1"/>
      <rect x="12" y="18" width="1" height="1"/>
      <rect x="18" y="18" width="4" height="1"/>
      <rect x="28" y="18" width="8" height="1"/>
      <rect x="42" y="18" width="4" height="1"/>
      <rect x="51" y="18" width="1" height="1"/>
      <rect x="12" y="19" width="1" height="1"/>
      <rect x="18" y="19" width="5" height="1"/>
      <rect x="27" y="19" width="10" height="1"/>
      <rect x="41" y="19" width="5" height="1"/>
      <rect x="51" y="19" width="1" height="1"/>
      <rect x="12" y="20" width="1" height="1"/>
      <rect x="18" y="20" width="3" height="1"/>
      <rect x="28" y="20" width="8" height="1"/>
      <rect x="43" y="20" width="3" height="1"/>
      <rect x="51" y="20" width="1" height="1"/>
      <rect x="12" y="21" width="1" height="1"/>
      <rect x="18" y="21" width="2" height="1"/>
      <rect x="30" y="21" width="4" height="1"/>
      <rect x="44" y="21" width="2" height="1"/>
      <rect x="51" y="21" width="1" height="1"/>
      <rect x="12" y="22" width="1" height="1"/>
      <rect x="18" y="22" width="2" height="1"/>
      <rect x="30" y="22" width="4" height="1"/>
      <rect x="44" y="22" width="2" height="1"/>
      <rect x="51" y="22" width="1" height="1"/>
      <rect x="12" y="23" width="3" height="1"/>
      <rect x="18" y="23" width="2" height="1"/>
      <rect x="30" y="23" width="4" height="1"/>
      <rect x="44" y="23" width="2" height="1"/>
      <rect x="49" y="23" width="3" height="1"/>
      <rect x="12" y="24" width="3" height="1"/>
      <rect x="18" y="24" width="28" height="1"/>
      <rect x="49" y="24" width="3" height="1"/>
      <rect x="11" y="25" width="4" height="1"/>
      <rect x="18" y="25" width="28" height="1"/>
      <rect x="49" y="25" width="4" height="1"/>
      <rect x="11" y="26" width="4" height="1"/>
      <rect x="25" y="26" width="14" height="1"/>
      <rect x="49" y="26" width="4" height="1"/>
      <rect x="11" y="27" width="5" height="1"/>
      <rect x="27" y="27" width="10" height="1"/>
      <rect x="48" y="27" width="5" height="1"/>
      <rect x="11" y="28" width="6" height="1"/>
      <rect x="29" y="28" width="6" height="1"/>
      <rect x="47" y="28" width="6" height="1"/>
      <rect x="11" y="29" width="14" height="1"/>
      <rect x="31" y="29" width="2" height="1"/>
      <rect x="39" y="29" width="14" height="1"/>
      <rect x="11" y="30" width="16" height="1"/>
      <rect x="37" y="30" width="16" height="1"/>
      <rect x="11" y="31" width="18" height="1"/>
      <rect x="35" y="31" width="18" height="1"/>
      <rect x="24" y="32" width="7" height="1"/>
      <rect x="33" y="32" width="7" height="1"/>
      <rect x="27" y="33" width="10" height="1"/>
      <rect x="29" y="34" width="6" height="1"/>
      <rect x="29" y="35" width="6" height="1"/>
    </g>
  </g>
</svg>
